<?xml version="1.0" encoding="UTF-8"?>
<svg viewBox="0 0 223.23544 294.42044" xmlns="http://www.w3.org/2000/svg">
 <g transform="translate(-260.22 -345.13)">
  <path d="m434.08 345.13c-0.96531 0-6.1354 7.0444-11.469 15.625-14.359 23.102-38.507 54.101-43.688 56.094-2.4926 0.95895-7.4295 2.0017-10.969 2.3125-6.5094 0.57172-14.525 7.475-32.312 27.812-7.6849 8.7864-12.875 12.104-26.094 16.656-10.16 3.4987-19.04 8.384-23.094 12.719-6.0281 6.4455-6.3074 7.4749-3.375 12.406 1.7616 2.9623 8.938 8.4986 15.938 12.281l12.719 6.875-3.1875 11.281c-1.7632 6.2119-3.2365 14.68-3.25 18.812s-2.4028 12.325-5.3125 18.188c-5.6107 11.304-13.588 41.665-14.75 56.125-0.40694 5.0636-20.6 27.233-25.011 27.233h195.33c-0.03454-7.7192-1.9203-18.71-2.9476-19.389-2.8089-1.8562 0.02885-30.726 3.625-36.875 4.7646-8.1463 3.7752-22.993-2.5-37.406-4.6589-10.701-5.6693-16.678-5.6875-34.281-0.01418-13.628 1.1498-23.693 3.1875-27.906 1.7534-3.6254 4.3011-13.005 5.6562-20.844 2.598-15.027 11.048-32.977 18.031-38.25 6.9982-5.2842 10.65-19.474 7.25-28.25-4.0065-10.342-8.3139-13.843-12.469-10.156-2.4113 2.1397-4.451 2.1959-7.9062 0.21875-4.0827-2.3363-4.6088-2.0131-4.125 2.5938 0.30392 2.894-0.81067 5.7996-2.5 6.4375-2.3863 0.90114-2.784-1.0532-1.7812-8.7188 0.70987-5.4266 0.14996-13.451-1.2188-17.844-2.424-7.7792-14.579-23.75-18.094-23.75z"/>
 </g>
</svg>
